<?xml version="1.0" encoding="UTF-8"?>
<svg version="1.1" xmlns="http://www.w3.org/2000/svg" width="2500" height="625">
<path d="M0 0 C0.66723083 -0.00394775 1.33446167 -0.00789551 2.02191162 -0.01196289 C13.84931606 -0.04402587 25.44585975 0.96213005 37.1875 2.3125 C58.04368623 4.67337975 77.13428602 4.33911775 97.98226929 2.0307312 C109.60687047 0.75470886 121.11494313 -0.10616977 132.8125 -0.125 C134.66464111 -0.13950195 134.66464111 -0.13950195 136.55419922 -0.15429688 C146.21587969 -0.06326261 155.87986594 0.94153517 163.5625 7.3125 C168.75210373 12.9345707 170.05976843 17.98354748 169.859375 25.48828125 C169.00969864 33.57138661 164.47063438 38.83634322 159.34716797 44.8137207 C140.13666684 67.30155742 140.08574197 97.55026774 140.234375 125.6328125 C140.23744093 128.19635914 140.2393107 130.75990745 140.24005127 133.32345581 C140.24461343 138.64653544 140.2584878 143.96945747 140.28125 149.29248047 C140.31039458 156.12186848 140.32050501 162.95115232 140.3249321 169.78059578 C140.32847941 175.05122911 140.33888407 180.32184383 140.35080719 185.59246445 C140.35650496 188.11312544 140.36126529 190.63378873 140.36507416 193.15445328 C140.37192099 196.65525718 140.38553922 200.15596493 140.40136719 203.65673828 C140.40304398 205.21810013 140.40304398 205.21810013 140.40475464 206.81100464 C140.41046478 207.76082214 140.41617493 208.71063965 140.42205811 209.6892395 C140.4265201 210.92731448 140.4265201 210.92731448 140.43107224 212.19040108 C140.48302036 214.5023622 140.48302036 214.5023622 141.5625 217.3125 C145.62841677 216.8134814 147.37433397 215.9695744 149.9609375 212.8046875 C150.55745117 212.07991211 151.15396484 211.35513672 151.76855469 210.60839844 C154.64198887 206.9309658 157.44542514 203.21393215 160.1875 199.4375 C160.78941162 198.61451416 161.39132324 197.79152832 162.01147461 196.94360352 C163.86670836 194.40342009 165.71577268 191.85887287 167.5625 189.3125 C168.12308105 188.53986816 168.68366211 187.76723633 169.26123047 186.97119141 C171.96709556 183.23804757 174.6661136 179.50005832 177.359375 175.7578125 C179.46634179 172.83033191 181.58088588 169.90861449 183.703125 166.9921875 C187.00895547 162.4460957 190.29047818 157.88297203 193.5625 153.3125 C194.49666748 152.0116748 194.49666748 152.0116748 195.44970703 150.68457031 C203.26823425 139.76005283 210.74218081 128.69052242 217.6875 117.1875 C218.29062012 116.19355225 218.89374023 115.19960449 219.51513672 114.17553711 C228.7684304 98.59998042 235.26587966 83.15763246 231.875 64.75 C230.01651395 57.55791359 226.495177 51.50984579 222.14648438 45.53662109 C216.32774478 37.53937924 212.43347869 29.47369183 213.5625 19.3125 C214.84993243 13.938869 216.41756368 9.13020451 220.5625 5.3125 C238.11761491 -4.24240572 261.44832462 -0.08680234 280.5625 2.3125 C300.29503327 4.74997519 318.25063622 4.47063299 337.96408081 2.0307312 C348.20953599 0.77141552 358.2886126 -0.09598558 368.625 -0.125 C369.69314941 -0.13466797 370.76129883 -0.14433594 371.86181641 -0.15429688 C380.86485044 -0.05623403 389.46298074 1.19179741 396.15625 7.6640625 C400.73542507 13.03187328 401.10687269 18.40768906 400.91015625 25.25 C399.83353411 34.73395234 395.26713005 41.41543637 388.08203125 47.3671875 C378.86851451 54.30359935 368.83927121 59.93236457 358.87963867 65.70922852 C336.73061913 78.56170038 315.31525153 92.22909064 295.16601562 108.05615234 C293.49668053 109.36406927 291.81929598 110.66112375 290.140625 111.95703125 C283.98919528 116.72263344 277.93715203 121.59442144 272 126.625 C271.42838135 127.10437012 270.8567627 127.58374023 270.26782227 128.07763672 C266.60515598 131.21520318 263.56052671 134.53286484 260.5625 138.3125 C261.22894531 138.47105469 261.89539063 138.62960938 262.58203125 138.79296875 C288.83790491 145.43956054 304.4672405 162.93686982 317.87036133 185.35522461 C343.82270423 229.89488563 358.8039659 280.53088012 375.20703125 329.08984375 C380.05864516 343.4400731 384.95221281 357.75231156 390.4375 371.875 C390.85378662 372.95652344 391.27007324 374.03804688 391.69897461 375.15234375 C398.54266989 392.39937904 407.28849087 405.47477653 421.97827148 416.81054688 C428.01532754 421.48591058 432.87873484 425.99344312 433.8984375 433.92578125 C433.99063492 440.29662318 433.35004356 445.0720299 429.5625 450.3125 C422.54719262 457.52267703 412.49028429 458.47882119 402.96508789 458.65429688 C401.60174321 458.66739022 400.23837709 458.67838644 398.875 458.6875 C397.82746048 458.69583862 397.82746048 458.69583862 396.75875854 458.7043457 C380.3633301 458.76852734 364.16559469 456.98484363 347.89770508 455.09130859 C329.76246734 453.00444837 312.76491991 453.03477532 294.62530518 454.96600342 C290.01841403 455.45277283 285.40777124 455.90066628 280.796875 456.34765625 C279.89969757 456.43470825 279.00252014 456.52176025 278.07815552 456.6114502 C230.0530727 461.21053732 230.0530727 461.21053732 213.625 450.375 C209.18773205 445.93773205 207.46654597 441.36475878 207.25 435.1875 C207.42816774 426.07125082 212.06321152 419.32785011 217.19946289 412.13208008 C227.74617288 397.29333287 230.54045296 381.46050799 227.94140625 363.62109375 C223.49306133 337.3487217 213.28098932 307.97852582 197.5625 286.3125 C196.95277344 285.46816406 196.34304688 284.62382812 195.71484375 283.75390625 C189.29136192 275.72125648 180.20392016 271.0764152 170.0703125 269.49609375 C163.53668019 269.01777487 156.72281922 269.15442671 151.12109375 272.90234375 C143.99107725 279.35331106 141.0532493 288.33090707 140.28448486 297.70114136 C140.16797762 301.50970181 140.14449214 305.31145059 140.1640625 309.12109375 C140.16203318 310.53719736 140.15911468 311.95329993 140.15536499 313.36940002 C140.15096887 316.32701641 140.15727537 319.28435911 140.17138672 322.24194336 C140.18833815 325.97014891 140.17842357 329.69770567 140.16107273 333.42588806 C140.04628577 362.421477 140.96369556 391.36389483 160.6875 414.375 C167.02949199 421.79899912 170.32830982 427.79427425 169.87109375 437.7421875 C169.0584917 444.51044252 166.07678501 448.63144916 160.90234375 452.8046875 C143.73992612 463.86427549 114.86773695 457.5465678 95.9765625 455.5078125 C94.71682617 455.37213867 93.45708984 455.23646484 92.15917969 455.09667969 C89.77066848 454.83407507 87.38315784 454.56210421 84.99707031 454.27832031 C70.21790634 452.61721231 56.01231532 453.22650623 41.29574585 454.96600342 C37.14021529 455.45352113 32.98040882 455.90103974 28.8203125 456.34765625 C27.60540382 456.47823425 27.60540382 456.47823425 26.36595154 456.6114502 C-16.0326438 461.1052692 -16.0326438 461.1052692 -29.4375 451.3125 C-33.32757183 447.70352893 -35.28714003 444.39042553 -35.67578125 439.01953125 C-35.91722038 426.35033077 -33.29341022 421.21709034 -24.74609375 411.99609375 C-5.42975285 389.54207311 -6.28531107 356.39917197 -6.29223633 328.57788086 C-6.28924065 326.17347156 -6.28583719 323.76906274 -6.28205872 321.36465454 C-6.27416766 315.5325513 -6.27100581 309.70046037 -6.27044634 303.86835205 C-6.26996904 299.12051636 -6.26790369 294.37268397 -6.26474571 289.62484932 C-6.25595013 276.1236235 -6.25132451 262.62240559 -6.25207619 249.12117689 C-6.25213612 248.03215991 -6.25213612 248.03215991 -6.25219727 246.92114258 C-6.25223815 246.19423065 -6.25227903 245.46731871 -6.25232115 244.71837915 C-6.2527271 232.95318606 -6.24316756 221.18802506 -6.2290589 209.42284124 C-6.21464122 197.30298433 -6.2077917 185.183143 -6.20865268 173.0632773 C-6.20898284 166.27483136 -6.206316 159.48641903 -6.19547462 152.69798088 C-6.18572719 146.30635858 -6.18575963 139.91480684 -6.19299126 133.52318192 C-6.19402895 131.1913308 -6.1917233 128.85947514 -6.1856308 126.52763176 C-6.14506107 109.90960608 -6.38646458 93.13437955 -10.25 76.875 C-10.42176758 76.13822021 -10.59353516 75.40144043 -10.77050781 74.64233398 C-14.40474924 59.75592197 -22.03697502 49.19997796 -31.7734375 37.6015625 C-36.64610603 30.89878372 -36.13168885 23.2399653 -35.4375 15.3125 C-33.94360642 10.36246343 -30.75731436 7.06147277 -26.4375 4.3125 C-17.71931255 0.36096382 -9.47585758 0.05212373 0 0 Z " fill="#000000" transform="translate(98.4375,113.6875)"/>
<path d="M0 0 C9.26034601 8.05395231 12.56916272 18.12520364 14 30 C14.29893685 36.10801391 14.31170332 42.20874695 14.31884766 48.32299805 C14.32816018 50.15711401 14.3383308 51.99122578 14.34928894 53.82533264 C14.37645375 58.77492778 14.39169803 63.72449467 14.40471697 68.67414451 C14.420407 73.85781303 14.44717835 79.04142437 14.4727478 84.22505188 C14.51943199 94.02780369 14.55622609 103.83056637 14.58942068 113.63337213 C14.62771547 124.79910926 14.67710626 135.96478881 14.72740483 147.13047731 C14.83057051 170.08694214 14.91988065 193.04344399 15 216 C16.28814524 215.37454084 17.57420788 214.74479132 18.859375 214.11323547 C19.57577148 213.76300481 20.29216797 213.41277414 21.03027344 213.05193043 C23.40962905 211.78123803 25.14010131 210.30332861 27 208.35546875 C27.66 207.67806641 28.32 207.00066406 29 206.30273438 C29.66 205.60470703 30.32 204.90667969 31 204.1875 C36.13409107 198.84784473 41.37305017 193.81785064 47 189 C48.10740859 188.01650283 49.21297422 187.03092534 50.31640625 186.04296875 C68.47114876 169.97373671 89.44289929 157.26507213 113 151 C113.65548828 150.82355957 114.31097656 150.64711914 114.98632812 150.46533203 C142.11624316 143.55965991 173.42295032 146.87833781 198.2890625 159.6953125 C204.85882293 163.6741815 210.53407795 168.62799413 216 174 C216.62648438 174.61359375 217.25296875 175.2271875 217.8984375 175.859375 C241.56224738 200.9151737 244.13529963 239.67075998 244.15771484 272.14892578 C244.16239927 273.70325357 244.16754542 275.25758002 244.17311096 276.81190491 C244.18427892 280.12814323 244.19276658 283.44437317 244.19923019 286.76062393 C244.21004741 292.02679899 244.23032627 297.29291289 244.25234985 302.55905151 C244.3138192 317.52371403 244.36816782 332.48837089 244.40136719 347.453125 C244.41983516 355.74210777 244.44891523 364.03098551 244.4893719 372.31989086 C244.51022793 376.68715483 244.52586833 381.05428781 244.52817917 385.42160416 C244.12598068 431.32749402 244.12598068 431.32749402 263.96875 471.546875 C266.07212751 474.08710783 268.02221458 476.6904606 269.9375 479.375 C270.50339844 480.16648437 271.06929687 480.95796875 271.65234375 481.7734375 C275.26023932 487.73430845 274.78168813 495.68278668 273.57421875 502.3515625 C271.91433065 507.6265443 268.69952756 511.13465698 264 514 C248.77344175 519.9573128 230.7851618 516.02585471 215.0625 514.1953125 C193.46046271 511.70152188 173.83241042 511.68482238 152.30224609 514.57641602 C123.14636737 518.43024999 123.14636737 518.43024999 111.171875 510.01171875 C103.15746845 503.2275939 99.47819195 496.39453255 98 486 C97.70280425 480.40488015 97.70882697 474.81709194 97.71289062 469.21533203 C97.7068582 467.52071303 97.69993188 465.82609701 97.69218445 464.13148499 C97.67734615 460.49427544 97.66855876 456.85712031 97.66447449 453.21988297 C97.65772352 447.45064144 97.63592178 441.68151507 97.61193848 435.912323 C97.56306361 423.64990913 97.53073511 411.38747069 97.5 399.125 C97.46682793 385.91743372 97.43059681 372.70991278 97.37586927 359.50241554 C97.35273887 353.78662861 97.33883454 348.07092127 97.33237457 342.35509229 C97.32636368 338.77158227 97.31220571 335.18813528 97.29603004 331.60465813 C97.29023824 329.96460619 97.28766387 328.32453857 97.28886986 326.68447685 C97.30112122 303.34358994 96.73517599 274.37756223 80.94921875 255.5546875 C73.49982604 248.64049388 64.93027271 246.65517107 54.96875 246.7890625 C45.18230044 247.48441549 36.96260453 250.95735346 30.0625 257.96875 C13.60221404 277.55081433 14.94280743 307.22725086 14.4296875 331.34765625 C14.38398667 333.41108939 14.33817769 335.47452013 14.29226685 337.53794861 C14.19732757 341.84873435 14.10533028 346.15957147 14.01513672 350.47045898 C13.90028698 355.93767097 13.7756206 361.40460957 13.6483593 366.87154484 C13.55075772 371.13138275 13.45978662 375.39134472 13.37054825 379.65136528 C13.32738919 381.66400625 13.28198723 383.67660066 13.23409653 385.6891346 C12.99738689 395.74719956 12.91457697 405.75823597 13.40283203 415.81030273 C13.4602422 416.99557729 13.4602422 416.99557729 13.51881218 418.20479679 C14.71549 439.37730831 19.22016106 460.03865231 35.13671875 475.08984375 C40.46291388 480.55003121 43.10647631 486.2177046 43.25 493.8125 C43.13165947 500.53818692 41.32008721 505.01880784 36.5 509.75 C20.59663708 522.57622036 -8.17859233 516.54461528 -26.77636719 514.60644531 C-28.03352539 514.47077148 -29.29068359 514.33509766 -30.5859375 514.1953125 C-31.84567383 514.05963867 -33.10541016 513.92396484 -34.40332031 513.78417969 C-36.79183152 513.52157507 -39.17934216 513.24960421 -41.56542969 512.96582031 C-56.34459366 511.30471231 -70.55018468 511.91400623 -85.26675415 513.65350342 C-89.42228471 514.14102113 -93.58209118 514.58853974 -97.7421875 515.03515625 C-98.95709618 515.16573425 -98.95709618 515.16573425 -100.19654846 515.2989502 C-142.5951438 519.7927692 -142.5951438 519.7927692 -156 510 C-159.89007183 506.39102893 -161.84964003 503.07792553 -162.23828125 497.70703125 C-162.47972038 485.03783077 -159.85591022 479.90459034 -151.30859375 470.68359375 C-132.85932456 449.23748895 -132.87672475 417.8376257 -132.79467773 391.11645508 C-132.78507861 389.12165127 -132.7750674 387.12684941 -132.76467896 385.13204956 C-132.73772675 379.72568842 -132.71663435 374.31931876 -132.69667697 368.91292787 C-132.67457037 363.17913508 -132.64726303 357.4453668 -132.62062073 351.71159363 C-132.57636432 342.02836242 -132.53563667 332.34512166 -132.49731445 322.66186523 C-132.45850018 312.8571637 -132.41704395 303.05247911 -132.37231445 293.24780273 C-132.36687791 292.05466811 -132.36144137 290.86153349 -132.35584009 289.63224328 C-132.34489013 287.23120513 -132.33393604 284.830167 -132.32297778 282.42912889 C-132.22786691 261.54457234 -132.14560128 240.66001377 -132.07879519 219.77534699 C-132.0411676 208.03924976 -131.99545491 196.30337302 -131.91607207 184.56747729 C-131.87393051 178.33475706 -131.84045241 172.10204494 -131.81520158 165.86923307 C-131.80096178 162.4773477 -131.78003939 159.08586286 -131.74853325 155.69407082 C-131.54940768 133.98285565 -131.6745223 113.88491227 -147 97 C-149.30351252 94.65921382 -151.63066789 92.35903366 -154.01953125 90.10546875 C-159.0800998 84.72549548 -160.34443692 79.60517391 -160.203125 72.43359375 C-159.69500787 66.34595969 -158.08636474 61.60176769 -153.6875 57.25 C-144.52283919 50.21650455 -131.77633047 48.01139481 -120.72650146 45.23406982 C-90.02806837 37.48045346 -60.33344583 27.93363943 -36 7 C-25.92940334 -1.47704385 -12.66806938 -8.13450672 0 0 Z " fill="#000000" transform="translate(2164,55)"/>
<path d="M0 0 C0.75047607 0.64751221 0.75047607 0.64751221 1.51611328 1.30810547 C35.59555546 30.94743508 48.71080202 71.74624772 51.81584549 115.80381393 C52.31244596 124.4228127 52.29775653 133.05578348 52.30496025 141.68649483 C52.30870924 145.30281346 52.32565781 148.91887786 52.34571838 152.53514099 C52.40034808 162.79836256 52.43174231 173.06161792 52.45629883 183.32495117 C52.47233555 189.65396915 52.50270358 195.98280001 52.54106331 202.31171989 C52.5525549 204.69105964 52.55864224 207.070433 52.55874443 209.44980049 C52.560464 238.80591714 54.28440461 268.78450257 75.18017578 291.42456055 C81.43916632 298.31750029 82.56282921 304.57682797 82.3515625 313.61328125 C81.74186161 319.48673313 79.82101377 323.12840251 75.75 327.3125 C59.07370953 337.54567825 36.36712607 332.05292623 18.08129883 329.7824707 C-1.54291673 327.38211777 -19.45729393 327.99736868 -39.02709961 330.57641602 C-70.95443968 334.68737885 -70.95443968 334.68737885 -81.71875 327.078125 C-90.11326114 320.08269905 -92.00662548 313.50015725 -93.375 303 C-94.63447684 293.56155418 -94.63447684 293.56155418 -100 286 C-105.23030334 283.94890065 -108.92025702 285.387532 -113.84887695 287.42578125 C-120.95681125 290.97671953 -127.43369493 295.67436377 -134 300.125 C-164.51692953 320.76704267 -164.51692953 320.76704267 -179.75 325.9375 C-180.93227173 326.35249756 -180.93227173 326.35249756 -182.13842773 326.77587891 C-210.33704228 336.41305391 -242.04864661 334.96578623 -269 322 C-288.86203681 312.22661681 -303.39928986 294.7413787 -310.75048828 273.86914062 C-321.36241219 241.12213542 -319.11110545 205.73426443 -303.94580078 174.81640625 C-282.57190258 133.76792855 -238.07843979 111.66326083 -196 98 C-182.32660341 93.71343689 -168.54973453 90.0409274 -154.5625 86.9375 C-132.9159699 82.1144697 -106.81109807 75.94657879 -93.19140625 56.89453125 C-89.34278559 50.77459349 -88.30633008 44.71886199 -89.5625 37.5625 C-91.91461984 28.75358059 -96.55030723 22.32688949 -104.25 17.46875 C-118.82599418 9.68384402 -135.57280576 9.41725039 -151.23828125 13.93359375 C-170.97356906 20.76413049 -183.75873141 35.91159977 -196 52 C-225.65949804 90.72797382 -225.65949804 90.72797382 -248.3671875 94.75 C-262.03347956 96.04768945 -274.13345113 95.69592443 -285.22265625 86.625 C-292.61820596 79.86335455 -297.60083611 71.74740502 -298.203125 61.56640625 C-298.5864407 42.35240544 -293.03547606 26.38312866 -280 12 C-279.33484375 11.25363281 -278.6696875 10.50726563 -277.984375 9.73828125 C-268.03268338 -0.8215693 -255.98341489 -8.0951937 -242.90234375 -14.12255859 C-241.16568254 -14.9235802 -239.4414634 -15.75143729 -237.71875 -16.58203125 C-171.46256149 -47.05666164 -57.9440745 -50.19523839 0 0 Z M-160.1875 153.20703125 C-172.89543538 165.82671708 -177.81779642 180.34447337 -178 198 C-177.1707593 213.00311414 -173.21525774 224.71146676 -162 235 C-152.05907039 243.1889638 -139.37423897 244.11018878 -127 243 C-116.07046065 240.62925433 -107.40774645 234.04623028 -101 225 C-91.19352994 208.78001576 -88.87173819 191.6147937 -88.796875 172.9296875 C-88.79117493 171.80861603 -88.78547485 170.68754456 -88.77960205 169.53250122 C-88.77021238 167.17776416 -88.76364229 164.82301431 -88.75976562 162.46826172 C-88.7500091 158.87834949 -88.7189075 155.28899831 -88.6875 151.69921875 C-88.68097332 149.40104503 -88.67572153 147.10286727 -88.671875 144.8046875 C-88.6533548 143.20752396 -88.6533548 143.20752396 -88.63446045 141.57809448 C-88.65412642 134.97144954 -88.91284489 128.62084204 -93.41278076 123.34298706 C-106.44450445 112.31651015 -149.59589795 143.57475818 -160.1875 153.20703125 Z " fill="#000000" transform="translate(1286,239)"/>
<path d="M0 0 C0.66870117 0.37495605 1.33740234 0.74991211 2.02636719 1.13623047 C12.24782807 6.95456323 20.65625794 13.74870937 29 22 C29.72445313 22.65226562 30.44890625 23.30453125 31.1953125 23.9765625 C59.52029702 50.00802601 69.25584751 93.62911641 71.17357254 130.32096481 C71.44022099 138.14901001 71.44107176 145.97687701 71.44140625 153.80859375 C71.45322938 156.28183247 71.46660522 158.75506419 71.48143005 161.22828674 C71.51715444 167.66014085 71.53767853 174.09193286 71.55297852 180.52386475 C71.57806771 190.83632623 71.61807474 201.14865072 71.67487907 211.46098518 C71.6909426 215.01841272 71.69495915 218.57570452 71.69789124 222.13316345 C71.80012979 254.19642971 74.98697952 281.28847959 96.203125 306.578125 C100.15299401 311.90186149 101.53446723 316.34372865 101.4375 322.9375 C101.42722778 324.00145996 101.42722778 324.00145996 101.41674805 325.08691406 C101.2007613 332.08585532 99.67311675 335.32688325 94.75 340.25 C79.22776817 350.12778389 58.42016346 345.2559279 41.25 343.1953125 C21.00969119 340.77785508 2.87053017 340.76860864 -17.32110596 343.28103638 C-51.55038941 347.52623607 -51.55038941 347.52623607 -63.3359375 339.38671875 C-70.29144684 333.72438173 -72.28976309 327.8225536 -73.4375 319.1875 C-75.0851136 308.05688855 -75.0851136 308.05688855 -81.125 298.8125 C-87.17961245 297.10141387 -92.02470352 298.98362821 -97.4921875 301.796875 C-104.43671851 305.77289124 -110.92785277 310.33252714 -117.38012695 315.05004883 C-148.93455349 337.81772062 -183.1590625 350.1719806 -222.20532227 344.15795898 C-245.00935473 340.18361412 -266.48952602 328.41397676 -279.94140625 309.28515625 C-297.85699498 280.69500422 -302.0217062 246.57463303 -294.52929688 213.85620117 C-285.88525949 179.44052264 -262.05649513 153.34368589 -232.24902344 135.33203125 C-206.44644745 120.04991503 -178.24896195 110.46976492 -149.2421875 103.3046875 C-148.28582901 103.06819992 -147.32947052 102.83171234 -146.34413147 102.58805847 C-141.56582022 101.41079988 -136.78412906 100.25129821 -131.99487305 99.11938477 C-98.70271521 91.37768695 -98.70271521 91.37768695 -73.66796875 69.859375 C-69.89156078 62.65350821 -69.03887538 56.12017947 -71.0625 48.125 C-73.93685268 39.36887008 -79.38081067 33.56478988 -87.41796875 29.21484375 C-101.2006512 22.73010208 -117.55723504 22.35780725 -132 27 C-151.70165864 34.44880828 -164.65354083 49.09717703 -177.03369141 65.51171875 C-190.74991382 83.63341607 -206.92622982 104.53589644 -231 108 C-244.56608236 108.9896654 -256.11606742 108.13183581 -266.9296875 99.04296875 C-275.10823433 90.97244046 -279.02873069 82.17688733 -279.375 70.75 C-278.83031873 52.8383658 -272.03847787 37.17093182 -260 24 C-259.48308594 23.40316406 -258.96617187 22.80632812 -258.43359375 22.19140625 C-232.12206807 -6.36220432 -187.68048069 -15.92223835 -151 -21 C-149.7637085 -21.17789063 -149.7637085 -21.17789063 -148.50244141 -21.359375 C-99.93897827 -28.02903517 -43.33692471 -24.51525377 0 0 Z M-105.13354492 143.84375 C-106.92715083 144.74480091 -108.72771351 145.63065389 -110.52929688 146.515625 C-122.59960885 152.55409155 -133.34606139 159.53074544 -143 169 C-143.64839844 169.62390625 -144.29679688 170.2478125 -144.96484375 170.890625 C-154.8660536 181.20348253 -158.40427561 194.88960049 -158.3125 208.8125 C-158.30831055 209.68616211 -158.30412109 210.55982422 -158.29980469 211.45996094 C-158.06666256 224.85819229 -154.50834399 236.0011291 -145.33984375 245.88671875 C-135.70658204 254.58721054 -124.52086058 256.66356661 -111.98046875 256.3125 C-99.75707452 255.35286159 -90.7432576 248.85112207 -82.953125 239.7421875 C-72.18702446 224.62658234 -69.87289224 206.90702817 -69.76171875 188.8125 C-69.74961113 186.92688354 -69.74961113 186.92688354 -69.73725891 185.00317383 C-69.72347552 182.35396694 -69.71244104 179.70488201 -69.70483398 177.05566406 C-69.69374498 173.67992611 -69.65927761 170.30484271 -69.61966228 166.92933655 C-69.58709854 163.68212382 -69.58271279 160.43485108 -69.57421875 157.1875 C-69.54795662 155.38406128 -69.54795662 155.38406128 -69.52116394 153.54418945 C-69.53915569 146.5654954 -70.15245562 141.89613392 -74 136 C-83.53818947 130.41666958 -96.52203881 139.50703711 -105.13354492 143.84375 Z " fill="#000000" transform="translate(842,226)"/>
<path d="M0 0 C0.90901062 -0.00067474 1.81802124 -0.00134949 2.75457764 -0.00204468 C52.9217664 0.05692108 102.2441911 11.55788437 138.66088867 48.03881836 C159.78269388 70.03058599 169.03453973 100.67913362 168.79077148 130.67358398 C168.22495783 152.43205973 159.68236407 172.67675569 143.96289062 187.86572266 C126.48576597 203.72604545 104.60537456 209.1952009 81.58740234 208.38623047 C63.84927499 207.2622383 47.01409092 198.89807741 34.85546875 186.1015625 C17.93471123 166.14654959 15.93195334 144.01778149 18.00390625 118.68359375 C19.07439629 106.87161791 20.39926519 95.1104158 22.125 83.375 C25.0425441 66.24245532 25.0425441 66.24245532 20.4375 50.25 C16.82789025 47.57954211 12.46736446 46.99226857 8.0625 47.25 C2.23768536 48.16012729 -4.0192669 50.7067669 -8.2265625 54.9140625 C-8.66742187 55.35492188 -9.10828125 55.79578125 -9.5625 56.25 C-10.2225 56.25 -10.8825 56.25 -11.5625 56.25 C-11.95888672 57.10658203 -11.95888672 57.10658203 -12.36328125 57.98046875 C-13.63203585 60.38159717 -15.11460985 62.39570161 -16.75 64.5625 C-37.64609621 94.30258714 -40.481635 135.05477497 -41.5625 170.25 C-41.58586426 170.94706055 -41.60922852 171.64412109 -41.63330078 172.36230469 C-42.85460931 213.8457422 -37.86878045 263.27951224 -8.5625 295.25 C-7.97339844 295.89453125 -7.38429688 296.5390625 -6.77734375 297.203125 C5.21178769 308.9024093 22.65780328 313.7882259 38.99316406 313.59985352 C56.81573908 313.0056343 72.04844308 307.31522023 84.4375 294.25 C85.0871875 293.57066406 85.736875 292.89132812 86.40625 292.19140625 C92.65121059 285.01226098 96.98014888 276.53270733 101.609375 268.2734375 C116.32645354 242.01793609 116.32645354 242.01793609 130.3125 237.9375 C140.02840525 235.96395675 148.96644543 237.30404754 157.6875 242 C164.82004592 247.83571939 168.89657033 254.0726047 170.4375 263.25 C172.06253582 284.2192122 163.6558889 302.61293649 150.3125 318.3125 C140.64097384 328.64645946 128.82937398 336.54855969 116.4375 343.25 C115.81633301 343.58596191 115.19516602 343.92192383 114.55517578 344.26806641 C59.40015868 373.41595099 -13.71930415 376.75004843 -72.77905273 359.09448242 C-102.47685258 349.84259693 -127.74514462 335.48595451 -150.5625 314.25 C-151.57957031 313.31414062 -151.57957031 313.31414062 -152.6171875 312.359375 C-185.29452933 281.12561052 -198.49041434 234.69879265 -199.74609375 190.7578125 C-200.65732775 139.10595567 -185.61671808 90.79576205 -149.5625 53.25 C-149.02753906 52.6923999 -148.49257812 52.1347998 -147.94140625 51.56030273 C-117.04262273 19.93515423 -73.30094954 6.55675382 -30.5625 1.25 C-29.73049072 1.1454248 -28.89848145 1.04084961 -28.04125977 0.93310547 C-18.72929545 -0.07481167 -9.35533685 0.00624805 0 0 Z " fill="#000000" transform="translate(1805.5625,202.75)"/>
<path d="M0 0 C8.12215378 6.33924198 10.9584489 14.78714557 12.34333801 24.72065735 C12.83639718 29.8486031 12.76432497 35.01278356 12.80859375 40.16015625 C12.84151518 42.7532588 12.8747271 45.34635768 12.90820312 47.93945312 C12.95668459 52.0101298 13.00061725 56.08083001 13.03930664 60.15161133 C13.07730783 64.09210492 13.13054394 68.03233614 13.18359375 71.97265625 C13.19621498 73.79628441 13.19621498 73.79628441 13.20909119 75.65675354 C13.22573318 76.79491013 13.24237518 77.93306671 13.25952148 79.10571289 C13.27498268 80.59960289 13.27498268 80.59960289 13.29075623 82.12367249 C13.59776135 85.37323091 14.26333849 88.00480192 15.5625 91 C18.4326878 91.95672927 20.36385601 92.14910723 23.3515625 92.2109375 C24.29386719 92.23929687 25.23617188 92.26765625 26.20703125 92.296875 C28.17039754 92.34833939 30.13396227 92.39278587 32.09765625 92.4296875 C40.38667708 92.69961491 48.5367467 93.80208232 54.5625 100 C59.21994385 106.61514907 60.28250582 113.07993595 59.5625 121 C58.22030323 127.07936185 56.19046312 132.44570615 50.92578125 136.15234375 C45.79455215 139.28005607 41.2680561 140.07728543 35.3671875 140.28125 C34.40425781 140.31863281 33.44132812 140.35601562 32.44921875 140.39453125 C30.4336033 140.46511701 28.41797819 140.5354274 26.40234375 140.60546875 C24.96181641 140.66154297 24.96181641 140.66154297 23.4921875 140.71875 C22.61804199 140.74904297 21.74389648 140.77933594 20.84326172 140.81054688 C18.39912473 140.92300853 18.39912473 140.92300853 15.5625 142 C13.63844372 146.32592152 13.31309933 150.14282312 13.31526184 154.83752441 C13.31164022 155.83260978 13.31164022 155.83260978 13.30794543 156.84779787 C13.30233583 159.05813906 13.31095128 161.26818767 13.31958008 163.47851562 C13.31850635 165.06930113 13.31656631 166.66008624 13.31382751 168.25086975 C13.30898429 172.56800834 13.3166335 176.88504334 13.32678056 181.20216942 C13.33559505 185.74158984 13.33380278 190.28100733 13.3334198 194.82043457 C13.33435655 202.46022254 13.34303293 210.09997082 13.35668945 217.73974609 C13.37232502 226.51789118 13.3776906 235.29599255 13.3769539 244.07415056 C13.37627225 253.47105074 13.38325756 262.86793448 13.3924005 272.26482964 C13.39451113 274.94322143 13.39523889 277.6216105 13.39563942 280.30000305 C13.36212246 303.02588528 13.36212246 303.02588528 13.9909668 325.74023438 C14.04492095 326.96836475 14.04492095 326.96836475 14.0999651 328.22130585 C15.02296 345.75478269 17.26317537 363.49444713 30.625 376.0625 C34.8280744 379.53050757 39.70336991 381.80463308 44.57421875 384.19140625 C48.3937639 386.50310482 50.92034222 389.02001351 52.3125 393.3125 C53.65601697 407.75530743 49.71462205 420.17159935 40.5625 431.46875 C22.10791253 451.28029243 -5.74451943 456.00649928 -31.515625 456.9296875 C-55.29362113 457.44929798 -78.4017073 452.28411499 -96.4375 436 C-97.07171875 435.43539063 -97.7059375 434.87078125 -98.359375 434.2890625 C-115.28664128 418.33548853 -122.78328171 394.40077214 -127.1875 372.25 C-127.38625732 371.26467285 -127.58501465 370.2793457 -127.78979492 369.26416016 C-131.88845156 347.23717475 -131.69098456 325.027861 -131.57442474 302.71979141 C-131.55415983 298.31020193 -131.54738342 293.90059286 -131.53955078 289.4909668 C-131.51755644 278.3272646 -131.4784315 267.16364638 -131.4375 256 C-131.39326028 243.91227627 -131.35219566 231.82458612 -131.33066368 219.73679733 C-131.32078594 214.51714214 -131.30120403 209.29764669 -131.27380371 204.07805538 C-131.25875814 200.82260184 -131.25222881 197.56716927 -131.2478714 194.31168556 C-131.24416712 192.817856 -131.23704677 191.32402979 -131.22600555 189.83023643 C-131.09252527 171.16596745 -132.77606152 154.5092106 -145.4375 140 C-148.23604116 137.35628823 -151.10730634 134.81997507 -154.0078125 132.2890625 C-159.19211784 127.40481341 -161.21264667 122.31658661 -161.6875 115.3125 C-161.56095158 109.13463637 -160.20273187 103.25808819 -155.6875 98.8125 C-148.59312552 93.46240354 -139.39451278 90.97312694 -131.05078125 88.1953125 C-97.61013165 77.02279118 -67.0831402 58.30583719 -45.4375 30 C-44.59559894 28.9123369 -43.75312955 27.82511354 -42.91015625 26.73828125 C-39.75337912 22.65565861 -36.59956578 18.57164634 -33.53125 14.421875 C-24.60320892 2.49076556 -15.4860453 -4.50503136 0 0 Z " fill="#000000" transform="translate(1535.4375,115)"/>
</svg>
